M48
; DRILL file {KiCad (6.0.7)} date Wed 14 Sep 2022 11:12:42 AM CEST
; FORMAT={-:-/ absolute / inch / decimal}
; #@! TF.CreationDate,2022-09-14T11:12:42+02:00
; #@! TF.GenerationSoftware,Kicad,Pcbnew,(6.0.7)
; #@! TF.FileFunction,MixedPlating,1,2
FMAT,2
INCH
; #@! TA.AperFunction,Plated,PTH,ComponentDrill
T1C0.0394
; #@! TA.AperFunction,Plated,PTH,ViaDrill
T2C0.0400
; #@! TA.AperFunction,NonPlated,NPTH,ComponentDrill
T3C0.1260
%
G90
G05
T1
X1.9722Y-0.9496
X1.9722Y-1.0496
X1.9722Y-1.1496
X1.9722Y-1.2496
X1.9722Y-1.4996
X1.9722Y-1.5996
X1.9722Y-1.6996
X1.9722Y-1.7996
X1.9722Y-2.0496
X1.9722Y-2.1496
X1.9722Y-2.2496
X1.9722Y-2.3496
X1.9722Y-2.5996
X1.9722Y-2.6996
X1.9722Y-2.7996
X1.9722Y-2.8996
X2.0496Y-3.1278
X2.0504Y-0.7222
X2.1496Y-3.1278
X2.1504Y-0.7222
X2.2496Y-3.1278
X2.2504Y-0.7222
X2.3492Y-0.9512
X2.3492Y-1.0512
X2.3492Y-1.1512
X2.3492Y-1.2512
X2.3492Y-1.3512
X2.3492Y-1.4512
X2.3492Y-1.5512
X2.3492Y-1.6512
X2.3492Y-1.7512
X2.3492Y-1.8512
X2.3492Y-1.9512
X2.3492Y-2.0512
X2.3492Y-2.1512
X2.3492Y-2.2512
X2.3492Y-2.3512
X2.3492Y-2.4512
X2.3492Y-2.5512
X2.3492Y-2.6512
X2.3492Y-2.7512
X2.3492Y-2.8512
X2.3496Y-3.1278
X2.3504Y-0.7222
X2.4492Y-0.9512
X2.4492Y-1.0512
X2.4492Y-1.1512
X2.4492Y-1.2512
X2.4492Y-1.3512
X2.4492Y-1.4512
X2.4492Y-1.5512
X2.4492Y-1.6512
X2.4492Y-1.7512
X2.4492Y-1.8512
X2.4492Y-1.9512
X2.4492Y-2.0512
X2.4492Y-2.1512
X2.4492Y-2.2512
X2.4492Y-2.3512
X2.4492Y-2.4512
X2.4492Y-2.5512
X2.4492Y-2.6512
X2.4492Y-2.7512
X2.4492Y-2.8512
X2.5996Y-3.1278
X2.6004Y-0.7222
X2.6996Y-3.1278
X2.7004Y-0.7222
X2.7996Y-3.1278
X2.8004Y-0.7222
X2.8996Y-3.1278
X2.9004Y-0.7222
X3.1496Y-3.1278
X3.1504Y-0.7222
X3.2496Y-3.1278
X3.2504Y-0.7222
X3.3496Y-3.1278
X3.3504Y-0.7222
X3.4496Y-3.1278
X3.4504Y-0.7222
X3.65Y-0.95
X3.65Y-1.05
X3.65Y-1.15
X3.65Y-1.25
X3.65Y-1.35
X3.65Y-1.45
X3.65Y-1.55
X3.65Y-1.65
X3.65Y-1.75
X3.65Y-1.85
X3.65Y-1.95
X3.65Y-2.05
X3.65Y-2.15
X3.65Y-2.25
X3.65Y-2.35
X3.65Y-2.45
X3.65Y-2.55
X3.65Y-2.65
X3.65Y-2.75
X3.65Y-2.85
X3.6996Y-3.1278
X3.7004Y-0.7222
X3.75Y-0.95
X3.75Y-1.05
X3.75Y-1.15
X3.75Y-1.25
X3.75Y-1.35
X3.75Y-1.45
X3.75Y-1.55
X3.75Y-1.65
X3.75Y-1.75
X3.75Y-1.85
X3.75Y-1.95
X3.75Y-2.05
X3.75Y-2.15
X3.75Y-2.25
X3.75Y-2.35
X3.75Y-2.45
X3.75Y-2.55
X3.75Y-2.65
X3.75Y-2.75
X3.75Y-2.85
X3.7996Y-3.1278
X3.8004Y-0.7222
X3.8996Y-3.1278
X3.9004Y-0.7222
X3.9996Y-3.1278
X4.0004Y-0.7222
X4.075Y-2.6
X4.075Y-2.7
X4.075Y-2.8
X4.075Y-2.9
X4.0778Y-0.9504
X4.0778Y-1.0504
X4.0778Y-1.1504
X4.0778Y-1.2504
X4.0778Y-1.5004
X4.0778Y-1.6004
X4.0778Y-1.7004
X4.0778Y-1.8004
X4.0778Y-2.0504
X4.0778Y-2.1504
X4.0778Y-2.2504
X4.0778Y-2.3504
T2
X2.1Y-1.15
X2.1Y-1.25
X2.1Y-1.7
X2.1Y-2.25
X2.1Y-2.8
X2.15Y-0.85
X2.25Y-0.95
X2.25Y-2.85
X2.25Y-3.0
X2.7Y-0.85
X2.7787Y-3.0213
X3.25Y-0.85
X3.3082Y-3.0728
X3.8662Y-0.8412
X3.9Y-3.025
X3.95Y-1.05
X3.95Y-1.6
X3.95Y-2.15
X3.95Y-2.7
T3
X1.75Y-0.5
X1.75Y-3.35
X4.3Y-0.5
X4.3Y-3.35
T0
M30
